# xmcd
#
# Track frame offsets:
#	150
#	36085
#	65129
#	104112
#	132744
#	152952
#	189762
#	205811
#	226450
#	250393
#
# Disc length: 3821 seconds
#
# Revision: 1
# Processed by: cddbd v1.5PL3 Copyright (c) Steve Scherf et al.
# Submitted via: audiograbber 1.82.01
#
DISCID=970eeb0a
DTITLE=Eric Clapton - 1999-11-24 - Yokohama Arena, Yokohama - Disc 1
DYEAR=1900
DGENRE=
TTITLE0=Eric Clapton - My Father's Eyes
TTITLE1=Eric Clapton - Pilgrim
TTITLE2=Eric Clapton - River of Tears
TTITLE3=Eric Clapton - Going Down Slow
TTITLE4=Eric Clapton - Hoochie Coochie Man
TTITLE5=Eric Clapton - She's Gone
TTITLE6=Eric Clapton - Ramblin' On My Mind
TTITLE7=Eric Clapton - Tears in Heaven
TTITLE8=Eric Clapton - Bell Bottom Blues
TTITLE9=Eric Clapton - Change the World
EXTD=
EXTT0=
EXTT1=
EXTT2=
EXTT3=
EXTT4=
EXTT5=
EXTT6=
EXTT7=
EXTT8=
EXTT9=
PLAYORDER=
